<svg width="24" height="24" viewBox="0 0 24 24" fill="none" xmlns="http://www.w3.org/2000/svg">
<rect width="24" height="24" rx="3.42857" fill="#18254C"/>
<path d="M18.4119 8.46405C17.9713 8.46405 17.6133 8.82128 17.6133 9.26085C17.6133 9.70041 17.9713 10.0576 18.4119 10.0576C18.8525 10.0576 19.2106 9.70041 19.2106 9.26085C19.2106 8.82128 18.8525 8.46405 18.4119 8.46405Z" fill="#80D6F7"/>
<path d="M15.6865 12.9575L14.3594 13.8924L16.1151 17.6586H17.8775L15.6865 12.9575Z" fill="white"/>
<path d="M16.8576 9.37202L11.9924 12.7969L12.0164 11.8487C12.023 11.5606 11.8739 11.2896 11.625 11.1436C11.3761 10.9962 11.0673 10.9948 10.817 11.1396L9.17311 12.0931L11.3481 7.42651L13.1065 11.2007L14.4323 10.2671L12.0709 5.19946H10.6227L6.75849 13.4915L6.7332 13.5061L6.74385 13.5247L4.81641 17.6587H6.57746L7.99509 14.6163L10.3831 13.2325L10.3551 14.3414C10.3471 14.6428 10.5109 14.9217 10.7771 15.0638C10.8956 15.1262 11.0247 15.1581 11.1538 15.1581C11.3162 15.1581 11.4773 15.109 11.6144 15.012L17.7787 10.6735L16.8576 9.37202Z" fill="white"/>
<path d="M11.1472 15.1584C11.018 15.1584 10.8889 15.1279 10.7705 15.0641C10.5042 14.922 10.3405 14.6418 10.3485 14.3417L10.3765 13.2328L7.52922 14.8835L6.72656 13.5051L10.8104 11.1373C11.0606 10.9925 11.3695 10.9938 11.6184 11.1412C11.8673 11.2886 12.0177 11.5582 12.0097 11.8464L11.9858 12.7946L16.8509 9.36969L17.7721 10.6711L11.6077 15.0097C11.4706 15.1066 11.3096 15.1558 11.1472 15.1558V15.1584Z" fill="url(#paint0_linear_0_290)"/>
<defs>
<linearGradient id="paint0_linear_0_290" x1="17.1744" y1="9.64193" x2="7.67214" y2="15.1405" gradientUnits="userSpaceOnUse">
<stop stop-color="#80D6F7"/>
<stop offset="1" stop-color="white" stop-opacity="0"/>
</linearGradient>
</defs>
</svg>
