<svg width="64" height="64" viewBox="0 0 64 64" fill="none" xmlns="http://www.w3.org/2000/svg">
<rect width="64" height="64" rx="32" fill="#1FCE65"/>
<path d="M31.9993 45.3333C28.2771 45.3333 25.1243 44.0416 22.541 41.4583C19.9577 38.875 18.666 35.7222 18.666 32C18.666 28.2777 19.9577 25.125 22.541 22.5416C25.1243 19.9583 28.2771 18.6666 31.9993 18.6666C33.916 18.6666 35.7494 19.0627 37.4994 19.855C39.2494 20.6461 40.7494 21.7777 41.9994 23.25V20.3333C41.9994 19.8611 42.1594 19.465 42.4794 19.145C42.7982 18.8261 43.1938 18.6666 43.666 18.6666C44.1382 18.6666 44.5338 18.8261 44.8527 19.145C45.1727 19.465 45.3327 19.8611 45.3327 20.3333V28.6666C45.3327 29.1388 45.1727 29.5344 44.8527 29.8533C44.5338 30.1733 44.1382 30.3333 43.666 30.3333H35.3327C34.8605 30.3333 34.4649 30.1733 34.146 29.8533C33.826 29.5344 33.666 29.1388 33.666 28.6666C33.666 28.1944 33.826 27.7983 34.146 27.4783C34.4649 27.1594 34.8605 27 35.3327 27H40.666C39.7771 25.4444 38.5621 24.2222 37.021 23.3333C35.4788 22.4444 33.8049 22 31.9993 22C29.2216 22 26.8605 22.9722 24.916 24.9166C22.9716 26.8611 21.9993 29.2222 21.9993 32C21.9993 34.7777 22.9716 37.1388 24.916 39.0833C26.8605 41.0277 29.2216 42 31.9993 42C33.916 42 35.6871 41.4927 37.3127 40.4783C38.9371 39.465 40.1521 38.1111 40.9577 36.4166C41.0966 36.1111 41.326 35.8544 41.646 35.6466C41.9649 35.4377 42.291 35.3333 42.6244 35.3333C43.2632 35.3333 43.7427 35.5555 44.0627 36C44.3816 36.4444 44.416 36.9444 44.166 37.5C43.1105 39.8611 41.4855 41.7566 39.291 43.1866C37.0966 44.6177 34.666 45.3333 31.9993 45.3333Z" fill="white"/>
</svg>
