<svg width="20" height="20" viewBox="0 0 20 20" fill="none" xmlns="http://www.w3.org/2000/svg">
<circle cx="10" cy="10" r="9.86111" fill="white" stroke="#E3E3E3" stroke-width="0.277778"/>
<path d="M15.3778 10.1273C15.3778 9.73006 15.3421 9.34811 15.2759 8.98145H10V11.1509H13.0148C12.8824 11.8486 12.4852 12.4393 11.8894 12.8365V14.2472H13.7074C14.7667 13.2694 15.3778 11.8333 15.3778 10.1273Z" fill="#4285F4"/>
<path d="M9.99897 15.6017C11.5115 15.6017 12.7795 15.1027 13.7064 14.2471L11.8883 12.8365C11.3893 13.1726 10.7527 13.3763 9.99897 13.3763C8.54249 13.3763 7.30499 12.3934 6.86194 11.0693H4.99805V12.5156C5.91981 14.3439 7.80916 15.6017 9.99897 15.6017Z" fill="#34A853"/>
<path d="M6.86325 11.0643C6.75122 10.7281 6.68501 10.3717 6.68501 9.99991C6.68501 9.62815 6.75122 9.27166 6.86325 8.93555V7.48926H4.99936C4.61742 8.24296 4.39844 9.09342 4.39844 9.99991C4.39844 10.9064 4.61742 11.7569 4.99936 12.5106L6.45075 11.38L6.86325 11.0643Z" fill="#FBBC05"/>
<path d="M9.99897 6.62802C10.824 6.62802 11.5573 6.9132 12.143 7.4632L13.7471 5.85904C12.7744 4.95255 11.5115 4.39746 9.99897 4.39746C7.80916 4.39746 5.91981 5.65533 4.99805 7.48866L6.86194 8.93496C7.30499 7.61089 8.54249 6.62802 9.99897 6.62802Z" fill="#EA4335"/>
</svg>
