<svg width="20" height="20" viewBox="0 0 20 20" fill="none" xmlns="http://www.w3.org/2000/svg">
<circle cx="10" cy="10" r="10" fill="#FFE812"/>
<path d="M9.86328 4.72168C6.41148 4.72168 3.61328 6.96313 3.61328 9.72804C3.61328 11.5156 4.78311 13.0841 6.54285 13.9698C6.44712 14.3053 5.92764 16.1277 5.90697 16.2709C5.90697 16.2709 5.89453 16.3784 5.9631 16.4195C6.03167 16.4605 6.11232 16.4286 6.11232 16.4286C6.30895 16.4007 8.39255 14.9138 8.75318 14.6556C9.11346 14.7075 9.48444 14.7344 9.86328 14.7344C13.3151 14.7344 16.1133 12.493 16.1133 9.72804C16.1133 6.96313 13.3151 4.72168 9.86328 4.72168Z" fill="black"/>
<path d="M6.46082 11.4919C6.26072 11.4919 6.09799 11.3281 6.09799 11.1267V8.85522H5.53184C5.33549 8.85522 5.17578 8.68724 5.17578 8.48083C5.17578 8.27443 5.33555 8.10645 5.53184 8.10645H7.3898C7.58615 8.10645 7.74586 8.27443 7.74586 8.48083C7.74586 8.68724 7.58609 8.85522 7.3898 8.85522H6.82366V11.1267C6.82366 11.3281 6.66092 11.4919 6.46082 11.4919ZM9.6424 11.4869C9.49109 11.4869 9.37535 11.4221 9.34046 11.318L9.16079 10.8224L8.05439 10.8223L7.87461 11.3183C7.83983 11.4222 7.72415 11.4869 7.57285 11.4869C7.49326 11.487 7.41459 11.469 7.34221 11.4341C7.24218 11.3855 7.14603 11.2518 7.25621 10.8912L8.12411 8.48389C8.18525 8.30081 8.37096 8.11218 8.60729 8.10651C8.84428 8.11212 9.02999 8.30081 9.09125 8.48427L9.95879 10.8905C10.0692 11.2519 9.97306 11.3857 9.87304 11.4342C9.80063 11.469 9.72197 11.487 9.6424 11.4869ZM8.97 10.1451L8.60759 9.06016L8.24518 10.1451H8.97ZM10.5427 11.4361C10.351 11.4361 10.195 11.2788 10.195 11.0856V8.4888C10.195 8.27793 10.3612 8.10645 10.5654 8.10645C10.7696 8.10645 10.9358 8.27793 10.9358 8.4888V10.7351H11.7068C11.8986 10.7351 12.0545 10.8924 12.0545 11.0856C12.0545 11.2788 11.8986 11.4361 11.7068 11.4361H10.5427ZM12.5585 11.4869C12.3584 11.4869 12.1957 11.3154 12.1957 11.1045V8.4888C12.1957 8.27793 12.3584 8.10645 12.5585 8.10645C12.7586 8.10645 12.9213 8.27793 12.9213 8.4888V9.3106L13.9336 8.24384C13.9857 8.18897 14.0572 8.15876 14.1349 8.15876C14.2255 8.15876 14.3164 8.19993 14.3846 8.27169C14.4481 8.3386 14.4861 8.42469 14.4913 8.5141C14.4965 8.60427 14.468 8.68692 14.4112 8.74689L13.5844 9.61808L14.4775 10.8649C14.5063 10.9049 14.5273 10.9506 14.5393 10.9992C14.5512 11.0478 14.5539 11.0985 14.5471 11.1482C14.5407 11.1979 14.5249 11.2459 14.5007 11.2891C14.4766 11.3324 14.4445 11.3702 14.4064 11.4004C14.3436 11.4506 14.2669 11.4777 14.1881 11.4775C14.1319 11.4778 14.0764 11.4642 14.0261 11.4378C13.9757 11.4114 13.932 11.373 13.8983 11.3255L13.0474 10.1374L12.9215 10.2701V11.1043C12.9213 11.2058 12.8831 11.303 12.815 11.3747C12.747 11.4464 12.6547 11.4868 12.5585 11.4869Z" fill="#FFE812"/>
</svg>
