<svg width="17" height="16" viewBox="0 0 17 16" fill="none" xmlns="http://www.w3.org/2000/svg">
<g clip-path="url(#clip0_2503_1781)">
<path d="M13.25 7.2133L16.9167 16.38H15.1208L14.12 13.88H10.7117L9.7125 16.38H7.9175L11.5833 7.2133H13.25ZM6.16667 0.546631V2.2133H11.1667V3.87996H9.52667C8.88385 5.81503 7.8579 7.60081 6.51 9.1308C7.11109 9.66714 7.76307 10.1436 8.45667 10.5533L7.83083 12.1183C6.93543 11.6105 6.098 11.0066 5.33333 10.3175C3.84465 11.6648 2.0817 12.6735 0.165833 13.2741L-0.280833 11.6666C1.3607 11.1432 2.87335 10.2794 4.15833 9.13163C3.20724 8.05491 2.41505 6.84769 1.80583 5.54663H3.6725C4.13696 6.40401 4.69389 7.20797 5.33333 7.94413C6.37509 6.74338 7.19609 5.36772 7.75833 3.8808L-0.5 3.87996V2.2133H4.5V0.546631H6.16667ZM12.4167 9.61747L11.3775 12.2133H13.4542L12.4167 9.61747Z" fill="white"/>
</g>
<defs>
<clipPath id="clip0_2503_1781">
<rect width="16" height="16" fill="white" transform="translate(0.5)"/>
</clipPath>
</defs>
</svg>
