<svg width="64" height="64" viewBox="0 0 64 65" fill="none" xmlns="http://www.w3.org/2000/svg">
<circle cx="32.0039" cy="32.4534" r="32" fill="black"/>
<g filter="url(#filter0_d_274_709)">
<path d="M46.2276 39.4577C45.4518 41.216 45.0779 42.0019 44.08 43.5537C42.683 45.7221 40.7124 48.4299 38.2781 48.4471C36.1108 48.4671 35.5514 47.0043 32.6083 47.0301C29.668 47.0444 29.0552 48.4757 26.8851 48.4528C24.4479 48.4299 22.5842 45.9918 21.1871 43.8262C17.2798 37.7539 16.8666 30.6347 19.2813 26.8485C20.9904 24.1637 23.6918 22.5862 26.2301 22.5862C28.8162 22.5862 30.441 24.0347 32.5774 24.0347C34.6519 24.0347 35.914 22.5833 38.905 22.5833C41.165 22.5833 43.5544 23.8396 45.2635 26.0081C39.6752 29.1346 40.5831 37.2778 46.2276 39.4577ZM36.6337 20.1595C37.7215 18.734 38.548 16.7233 38.2472 14.6753C36.4734 14.7986 34.3989 15.9546 33.1874 17.4518C32.0883 18.8172 31.1775 20.8422 31.5317 22.8013C33.4685 22.8644 35.4727 21.6855 36.6337 20.1595Z" fill="white"/>
<path d="M32.6049 46.5301C31.0359 46.5379 30.0743 46.9294 29.2525 47.2995C29.2022 47.3222 29.1527 47.3446 29.1039 47.3667C28.3704 47.6989 27.7888 47.9623 26.8904 47.9528L26.8898 47.9528C25.846 47.943 24.8856 47.4167 23.9874 46.5776C23.0894 45.7387 22.3015 44.6312 21.6076 43.5556C19.6966 40.5857 18.6433 37.3641 18.3612 34.4322C18.0782 31.4913 18.574 28.8874 19.7028 27.1174L19.7031 27.117C21.3383 24.5483 23.8936 23.0862 26.2301 23.0862C27.4278 23.0862 28.4082 23.4194 29.4016 23.7803C29.4555 23.7999 29.5095 23.8196 29.5637 23.8394C30.4908 24.1777 31.4691 24.5347 32.5774 24.5347C33.6183 24.5347 34.4795 24.2007 35.315 23.8768C35.4023 23.8429 35.4893 23.8092 35.5761 23.776C36.5047 23.4209 37.5004 23.0833 38.905 23.0833C40.8333 23.0833 42.9124 24.0834 44.5069 25.8823C39.2556 29.3252 40.152 37.208 45.5648 39.7193C44.9271 41.1498 44.5468 41.9034 43.6595 43.2832C42.9637 44.3633 42.1471 45.5415 41.2185 46.4496C40.2846 47.3629 39.3018 47.9398 38.2746 47.9471L38.2735 47.9471C37.3887 47.9553 36.8247 47.6926 36.1126 47.361C36.0574 47.3352 36.0012 47.3091 35.944 47.2826C35.1314 46.9069 34.1791 46.5165 32.6049 46.5301ZM32.6049 46.5301C32.6052 46.5301 32.6055 46.5301 32.6059 46.5301L32.6083 47.0301L32.6039 46.5301C32.6042 46.5301 32.6046 46.5301 32.6049 46.5301ZM36.2362 19.8562L36.2357 19.8568C35.2366 21.1701 33.5818 22.1835 31.9692 22.2937C31.8363 20.6589 32.6084 18.9687 33.5763 17.7661C34.6013 16.4995 36.2915 15.4991 37.8012 15.2337C37.8948 16.9425 37.1819 18.617 36.2362 19.8562Z" stroke="black"/>
</g>
<defs>
<filter id="filter0_d_274_709" x="13.7832" y="14.6753" width="36.4453" height="41.7778" filterUnits="userSpaceOnUse" color-interpolation-filters="sRGB">
<feFlood flood-opacity="0" result="BackgroundImageFix"/>
<feColorMatrix in="SourceAlpha" type="matrix" values="0 0 0 0 0 0 0 0 0 0 0 0 0 0 0 0 0 0 127 0" result="hardAlpha"/>
<feOffset dy="4"/>
<feGaussianBlur stdDeviation="2"/>
<feComposite in2="hardAlpha" operator="out"/>
<feColorMatrix type="matrix" values="0 0 0 0 0 0 0 0 0 0 0 0 0 0 0 0 0 0 0.25 0"/>
<feBlend mode="normal" in2="BackgroundImageFix" result="effect1_dropShadow_274_709"/>
<feBlend mode="normal" in="SourceGraphic" in2="effect1_dropShadow_274_709" result="shape"/>
</filter>
</defs>
</svg>
