<svg width="88" height="88" viewBox="0 0 88 88" fill="none" xmlns="http://www.w3.org/2000/svg">
<g filter="url(#filter0_d_284_2559)">
<circle cx="44" cy="44" r="40" fill="#18254C"/>
<circle cx="44" cy="44" r="40" fill="black" fill-opacity="0.2"/>
<circle cx="44" cy="44" r="40" fill="black" fill-opacity="0.2"/>
<circle cx="44" cy="44" r="40" fill="black" fill-opacity="0.2"/>
<circle cx="44" cy="44" r="40" fill="black" fill-opacity="0.2"/>
<circle cx="44" cy="44" r="40" fill="black" fill-opacity="0.2"/>
<circle cx="44" cy="44" r="40" fill="black" fill-opacity="0.2"/>
<circle cx="44" cy="44" r="40" fill="black" fill-opacity="0.2"/>
<circle cx="44" cy="44" r="40" fill="black" fill-opacity="0.2"/>
<circle cx="44" cy="44" r="40" fill="black" fill-opacity="0.2"/>
<circle cx="44" cy="44" r="40" fill="black" fill-opacity="0.2"/>
</g>
<path d="M47.1248 60.875C44.8073 60.875 42.2536 61.8125 39.923 63.0219C36.1767 64.9662 34.3036 65.9394 33.3811 65.3188C32.4586 64.7 32.633 62.7781 32.9836 58.9362L33.0623 58.0625" stroke="white" stroke-width="3.75" stroke-linecap="round"/>
<circle cx="35.875" cy="44" r="1.875" fill="white"/>
<circle cx="50.875" cy="44" r="1.875" fill="white"/>
<path d="M38.6875 47.75H48.0625C48.0625 49.8211 46.3836 51.5 44.3125 51.5H42.4375C40.3664 51.5 38.6875 49.8211 38.6875 47.75Z" fill="white"/>
<path fill-rule="evenodd" clip-rule="evenodd" d="M44.7813 26.7487C45.6219 26.2624 46.1875 25.3535 46.1875 24.3125C46.1875 22.7592 44.9283 21.5 43.375 21.5C41.8217 21.5 40.5625 22.7592 40.5625 24.3125C40.5625 25.3535 41.1281 26.2624 41.9688 26.7487V29H39.4878H39.4878C36.069 29 33.3131 28.9999 31.1457 29.2914C28.8957 29.5941 27.001 30.2415 25.4967 31.7467C23.9914 33.251 23.344 35.1457 23.0414 37.3957C22.7499 39.5632 22.75 42.319 22.75 45.7377V45.7378V45.7378V46.0122V46.0123V46.0123C22.75 49.431 22.7499 52.1869 23.0414 54.3543C23.344 56.6043 23.9914 58.4989 25.4965 60.0032C27.1755 61.6842 29.3404 62.2957 31.9427 62.5499C32.9733 62.6506 33.8904 61.8967 33.9911 60.8661C34.0918 59.8355 33.3379 58.9183 32.3073 58.8177C30.035 58.5957 28.919 58.1235 28.1493 57.3527L28.1478 57.3511C27.4559 56.6599 27.0047 55.6889 26.758 53.8545C26.504 51.9662 26.5 49.4634 26.5 45.875C26.5 42.2867 26.504 39.7839 26.758 37.8956C27.0047 36.0612 27.457 35.089 28.1489 34.3978C28.8402 33.7059 29.8112 33.2547 31.6456 33.008C33.5339 32.754 36.0367 32.75 39.625 32.75H47.125C50.7133 32.75 53.2161 32.754 55.1044 33.008C56.9388 33.2547 57.911 33.7071 58.6022 34.3989C59.2941 35.0902 59.7453 36.0612 59.992 37.8956C60.246 39.7839 60.25 42.2867 60.25 45.875C60.25 49.4634 60.246 51.9662 59.992 53.8545C59.7453 55.6889 59.293 56.661 58.6011 57.3523C57.9098 58.0441 56.9388 58.4953 55.1044 58.7421C53.2161 58.996 50.7133 59 47.125 59C46.0895 59 45.25 59.8395 45.25 60.875C45.25 61.9106 46.0895 62.75 47.125 62.75H47.2622C50.6809 62.7501 53.4369 62.7501 55.6043 62.4586C57.8546 62.1559 59.7495 61.5084 61.2539 60.0028C62.7587 58.4986 63.406 56.604 63.7086 54.3543C64.0001 52.1869 64.0001 49.431 64 46.0122V45.7378C64.0001 42.3191 64.0001 39.5632 63.7086 37.3957C63.406 35.146 62.7587 33.2514 61.2539 31.7473C59.7495 30.2416 57.8546 29.5941 55.6043 29.2914C53.4369 28.9999 50.681 29 47.2622 29H47.2622H44.7813V26.7487Z" fill="white"/>
<defs>
<filter id="filter0_d_284_2559" x="0.25" y="0.25" width="87.5" height="87.5" filterUnits="userSpaceOnUse" color-interpolation-filters="sRGB">
<feFlood flood-opacity="0" result="BackgroundImageFix"/>
<feColorMatrix in="SourceAlpha" type="matrix" values="0 0 0 0 0 0 0 0 0 0 0 0 0 0 0 0 0 0 127 0" result="hardAlpha"/>
<feOffset/>
<feGaussianBlur stdDeviation="1.875"/>
<feComposite in2="hardAlpha" operator="out"/>
<feColorMatrix type="matrix" values="0 0 0 0 0.732836 0 0 0 0 0.92161 0 0 0 0 0.999544 0 0 0 1 0"/>
<feBlend mode="normal" in2="BackgroundImageFix" result="effect1_dropShadow_284_2559"/>
<feBlend mode="normal" in="SourceGraphic" in2="effect1_dropShadow_284_2559" result="shape"/>
</filter>
</defs>
</svg>
